<?xml version="1.0" encoding="utf-8"?>
<!-- Generator: Adobe Illustrator 27.8.1, SVG Export Plug-In . SVG Version: 6.00 Build 0)  -->
<svg version="1.1" id="Capa_1" xmlns="http://www.w3.org/2000/svg" xmlns:xlink="http://www.w3.org/1999/xlink" x="0px" y="0px"
	 viewBox="0 0 27.4 30.5" style="enable-background:new 0 0 27.4 30.5;" xml:space="preserve">
<style type="text/css">
	.st0{fill:#901353;}
</style>
<path class="st0" d="M24.9,26.7l-2-15.4H21c0-0.5-0.2-1.3-0.2-1.5c-0.7-5.2-3.1-7.8-7.1-7.9C9.7,2,7.3,4.6,6.6,9.8
	c0,0.2-0.2,1-0.2,1.5H4.7L2.5,26.7c-0.1,0.9,0.5,1.7,1.4,1.7h4.3h4h2.9H19h4.4C24.4,28.4,25.1,27.6,24.9,26.7z M8.6,9.5
	c0.3-3.5,2.4-5.6,5-5.7c2.6,0.1,4.7,2.2,5,5.7c0.1,0.7,0.1,1.8,0.1,1.8H8.5C8.5,11.3,8.6,10.2,8.6,9.5z M7.9,16.6
	c0-1,0.9-1.9,1.9-1.9s1.9,0.9,1.9,1.9s-0.8,1.9-1.9,1.9C8.7,18.5,7.9,17.6,7.9,16.6z M13.7,24.8c-2.3,0-4.2-1.2-4.2-2.6h8.3
	C17.9,23.7,16,24.8,13.7,24.8z M17.9,18.5c-1.1,0-1.9-0.9-1.9-1.9s0.9-1.9,1.9-1.9s1.9,0.9,1.9,1.9S19,18.5,17.9,18.5z"/>
</svg>
